<svg id="Capa_1" enable-background="new 0 0 512.054 512.054" height="512" viewBox="0 0 512.054 512.054" width="512" xmlns="http://www.w3.org/2000/svg"><g><g><path d="m256.094 239.005c-.657 0-1.321-.043-1.99-.132-8.213-1.088-13.988-8.628-12.899-16.841 10.692-81.654-11.715-119.896-102.413-103.277-35.231 6.403-89.397 5.955-115.407-20.055-35.112-35.112-20.311-85.887-19.663-88.031 2.393-7.931 10.763-12.418 18.694-10.025 7.909 2.388 12.395 10.719 10.044 18.631-.119.408-10.135 35.94 12.138 58.212 26.395 26.395 95.094 7.98 131.151 8.535 66.25 1.019 93.186 29.956 96.625 96.096 1.221 23.486-1.321 43.036-1.429 43.857-1 7.543-7.444 13.03-14.851 13.03z" fill="#dfe7f4"/></g><path d="m369.565 179.974c-45.57 0-63.56 31.42-73.11 54.18-7.35-14.89-22.69-25.15-40.38-25.15s-33.03 10.26-40.38 25.15c-9.55-22.76-27.53-54.18-73.11-54.18-105.1 0-142.41 212.22-142.41 255.13 0 56.8 31.87 76.95 59.16 76.95 48.01 0 99.64-82.06 124.55-123.05h144.38c24.89 40.96 76.71 123.05 124.55 123.05 27.29 0 59.16-20.15 59.16-76.95 0-18.04-28.12-255.13-142.41-255.13z" fill="#596c76"/><path d="m511.975 435.104c0 56.8-31.87 76.95-59.16 76.95-47.84 0-99.66-82.09-124.55-123.05h-72.19v-180c17.69 0 33.03 10.26 40.38 25.15 9.55-22.76 27.54-54.18 73.11-54.18 114.29 0 142.41 237.09 142.41 255.13z" fill="#3b4a51"/><g><path d="m301.075 314.004c0 8.28-6.72 15-15 15h-60c-8.28 0-15-6.72-15-15s6.72-15 15-15h60c8.28 0 15 6.72 15 15z" fill="#f0f7ff"/></g><path d="m301.075 314.004c0 8.28-6.72 15-15 15h-30v-30h30c8.28 0 15 6.72 15 15z" fill="#dfe7f4"/><path d="m166.075 269.004h-15v-15c0-8.284-6.716-15-15-15s-15 6.716-15 15v15h-15c-8.284 0-15 6.716-15 15s6.716 15 15 15h15v15c0 8.284 6.716 15 15 15s15-6.716 15-15v-15h15c8.284 0 15-6.716 15-15s-6.716-15-15-15z" fill="#ffe470"/><g><circle cx="376.075" cy="254.004" fill="#76e2f8" r="15"/></g><g><circle cx="376.075" cy="314.004" fill="#ff7d43" r="15"/></g><g><circle cx="406.075" cy="284.004" fill="#fabe2c" r="15"/></g><g><circle cx="346.075" cy="284.004" fill="#8cd96b" r="15"/></g></g></svg>